<svg xmlns="http://www.w3.org/2000/svg" className='user-rating-icon'>
	<path d="M12 17.27L18.18 21l-1.64-7.03L22 9.24l-7.19-.62L12 2 9.19 8.62 2 9.24l5.45 4.73L5.82 21 12 17.27z" strokeWidth="2" strokeDasharray="72.12902550641519,0" strokeDashoffset="72.129026"/>
<path d="M36 17.27L42.18 21l-1.64-7.03L46 9.24l-7.19-.62L36 2l-2.81 6.62-7.19.62 5.45 4.73L29.82 21 36 17.27z" strokeWidth="2" strokeDasharray="72.09853854611978,0.030486960295408174" strokeDashoffset="72.098539"/>
<path d="M60 17.27L66.18 21l-1.64-7.03L70 9.24l-7.19-.62L60 2l-2.81 6.62-7.19.62 5.45 4.73L53.82 21 60 17.27z" strokeWidth="2" strokeDasharray="71.91946516774945,0.2095603386657423" strokeDashoffset="71.919465"/>
<path d="M84 17.27L90.18 21l-1.64-7.03L94 9.24l-7.19-.62L84 2l-2.81 6.62-7.19.62 5.45 4.73L77.82 21 84 17.27z" strokeWidth="2" strokeDasharray="71.55968736586965,0.5693381405455432" strokeDashoffset="71.559687"/>
<path d="M108 17.27l6.18 3.73-1.64-7.03L118 9.24l-7.19-.62L108 2l-2.81 6.62-7.19.62 5.45 4.73-1.63 7.03 6.18-3.73z" strokeWidth="2" strokeDasharray="70.99183047611919,1.1371950302959946" strokeDashoffset="70.99183"/>
<path d="M132 17.27l6.18 3.73-1.64-7.03L142 9.24l-7.19-.62L132 2l-2.81 6.62-7.19.62 5.45 4.73-1.63 7.03 6.18-3.73z" strokeWidth="2" strokeDasharray="70.1831046892205,1.9459208171946911" strokeDashoffset="70.183105"/>
<path d="M156 17.27l6.18 3.73-1.64-7.03L166 9.24l-7.19-.62L156 2l-2.81 6.62-7.19.62 5.45 4.73-1.63 7.03 6.18-3.73z" strokeWidth="2" strokeDasharray="69.10261178918181,3.026413717233387" strokeDashoffset="69.094474"/>
<path d="M180 17.27l6.18 3.73-1.64-7.03L190 9.24l-7.19-.62L180 2l-2.81 6.62-7.19.62 5.45 4.73-1.63 7.03 6.18-3.73z" strokeWidth="2" strokeDasharray="67.8044848612336,4.324540645181581" strokeDashoffset="67.680234"/>
<path d="M204 17.27l6.18 3.73-1.64-7.03L214 9.24l-7.19-.62L204 2l-2.81 6.62-7.19.62 5.45 4.73-1.63 7.03 6.18-3.73z" strokeWidth="2" strokeDasharray="66.28109023312808,5.847935273287106" strokeDashoffset="65.88877"/>
<path d="M228 17.27l6.18 3.73-1.64-7.03L238 9.24l-7.19-.62L228 2l-2.81 6.62-7.19.62 5.45 4.73-1.63 7.03 6.18-3.73z" strokeWidth="2" strokeDasharray="64.49958072702019,7.629444779394997" strokeDashoffset="63.666055"/>
<path d="M252 17.27l6.18 3.73-1.64-7.03L262 9.24l-7.19-.62L252 2l-2.81 6.62-7.19.62 5.45 4.73-1.63 7.03 6.18-3.73z" strokeWidth="2" strokeDasharray="62.437423340894604,9.691602165520587" strokeDashoffset="60.964438"/>
<path d="M276 17.27l6.18 3.73-1.64-7.03L286 9.24l-7.19-.62L276 2l-2.81 6.62-7.19.62 5.45 4.73-1.63 7.03 6.18-3.73z" strokeWidth="2" strokeDasharray="60.10006316991874,12.028962336496447" strokeDashoffset="57.759659"/>
<path d="M300 17.27l6.18 3.73-1.64-7.03L310 9.24l-7.19-.62L300 2l-2.81 6.62-7.19.62 5.45 4.73-1.63 7.03 6.18-3.73z" strokeWidth="2" strokeDasharray="57.54643230216963,14.582593204245558" strokeDashoffset="54.07583"/>
<path d="M324 17.27l6.18 3.73-1.64-7.03L334 9.24l-7.19-.62L324 2l-2.81 6.62-7.19.62 5.45 4.73-1.63 7.03 6.18-3.73z" strokeWidth="2" strokeDasharray="54.911644916130854,17.217380590284336" strokeDashoffset="50.008079"/>
<path d="M348 17.27l6.18 3.73-1.64-7.03L358 9.24l-7.19-.62L348 2l-2.81 6.62-7.19.62 5.45 4.73-1.63 7.03 6.18-3.73z" strokeWidth="2" strokeDasharray="52.40449277212533,19.72453273428986" strokeDashoffset="45.721137"/>
<path d="M372 17.27l6.18 3.73-1.64-7.03L382 9.24l-7.19-.62L372 2l-2.81 6.62-7.19.62 5.45 4.73-1.63 7.03 6.18-3.73z" strokeWidth="2" strokeDasharray="50.26553334132981,21.863492165085386" strokeDashoffset="41.410901"/>
<path d="M396 17.27l6.18 3.73-1.64-7.03L406 9.24l-7.19-.62L396 2l-2.81 6.62-7.19.62 5.45 4.73-1.63 7.03 6.18-3.73z" strokeWidth="2" strokeDasharray="48.70458024998137,23.42444525643382" strokeDashoffset="37.249652"/>
<path d="M420 17.27l6.18 3.73-1.64-7.03L430 9.24l-7.19-.62L420 2l-2.81 6.62-7.19.62 5.45 4.73-1.63 7.03 6.18-3.73z" strokeWidth="2" strokeDasharray="47.852604876315525,24.276420630099665" strokeDashoffset="33.351736"/>
<path d="M444 17.27l6.18 3.73-1.64-7.03L454 9.24l-7.19-.62L444 2l-2.81 6.62-7.19.62 5.45 4.73-1.63 7.03 6.18-3.73z" strokeWidth="2" strokeDasharray="47.74111064180752,24.387914864607666" strokeDashoffset="29.771941"/>
<path d="M468 17.27l6.18 3.73-1.64-7.03L478 9.24l-7.19-.62L468 2l-2.81 6.62-7.19.62 5.45 4.73-1.63 7.03 6.18-3.73z" strokeWidth="2" strokeDasharray="48.3023044084924,23.826721097922793" strokeDashoffset="26.522114"/>
<path d="M492 17.27l6.18 3.73-1.64-7.03L502 9.24l-7.19-.62L492 2l-2.81 6.62-7.19.62 5.45 4.73-1.63 7.03 6.18-3.73z" strokeWidth="2" strokeDasharray="49.388444419030115,22.740581087385074" strokeDashoffset="23.589562"/>
<path d="M516 17.27l6.18 3.73-1.64-7.03L526 9.24l-7.19-.62L516 2l-2.81 6.62-7.19.62 5.45 4.73-1.63 7.03 6.18-3.73z" strokeWidth="2" strokeDasharray="50.81244678850523,21.316578717909966" strokeDashoffset="20.950267"/>
<path d="M540 17.27l6.18 3.73-1.64-7.03L550 9.24l-7.19-.62L540 2l-2.81 6.62-7.19.62 5.45 4.73-1.63 7.03 6.18-3.73z" strokeWidth="2" strokeDasharray="52.396770381678,19.732255124737183" strokeDashoffset="18.576621"/>
<path d="M564 17.27l6.18 3.73-1.64-7.03L574 9.24l-7.19-.62L564 2l-2.81 6.62-7.19.62 5.45 4.73-1.63 7.03 6.18-3.73z" strokeWidth="2" strokeDasharray="54.0068718317956,18.12215367461959" strokeDashoffset="16.441361"/>
<path d="M588 17.27l6.18 3.73-1.64-7.03L598 9.24l-7.19-.62L588 2l-2.81 6.62-7.19.62 5.45 4.73-1.63 7.03 6.18-3.73z" strokeWidth="2" strokeDasharray="55.55891893992168,16.57010656649351" strokeDashoffset="14.519318"/>
<path d="M612 17.27l6.18 3.73-1.64-7.03L622 9.24l-7.19-.62L612 2l-2.81 6.62-7.19.62 5.45 4.73-1.63 7.03 6.18-3.73z" strokeWidth="2" strokeDasharray="57.010213275996584,15.118812230418605" strokeDashoffset="12.788009"/>
<path d="M636 17.27l6.18 3.73-1.64-7.03L646 9.24l-7.19-.62L636 2l-2.81 6.62-7.19.62 5.45 4.73-1.63 7.03 6.18-3.73z" strokeWidth="2" strokeDasharray="58.34502609529728,13.783999411117913" strokeDashoffset="11.227684"/>
<path d="M660 17.27l6.18 3.73-1.64-7.03L670 9.24l-7.19-.62L660 2l-2.81 6.62-7.19.62 5.45 4.73-1.63 7.03 6.18-3.73z" strokeWidth="2" strokeDasharray="59.562875112932126,12.566150393483063" strokeDashoffset="9.821121"/>
<path d="M684 17.27l6.18 3.73-1.64-7.03L694 9.24l-7.19-.62L684 2l-2.81 6.62-7.19.62 5.45 4.73-1.63 7.03 6.18-3.73z" strokeWidth="2" strokeDasharray="60.67081151309657,11.458213993318623" strokeDashoffset="8.553347"/>
<path d="M708 17.27l6.18 3.73-1.64-7.03L718 9.24l-7.19-.62L708 2l-2.81 6.62-7.19.62 5.45 4.73-1.63 7.03 6.18-3.73z" strokeWidth="2" strokeDasharray="61.67895452417969,10.4500709822355" strokeDashoffset="7.411335"/>
<path d="M732 17.27l6.18 3.73-1.64-7.03L742 9.24l-7.19-.62L732 2l-2.81 6.62-7.19.62 5.45 4.73-1.63 7.03 6.18-3.73z" strokeWidth="2" strokeDasharray="62.59812707168885,9.53089843472634" strokeDashoffset="6.38373"/>
<path d="M756 17.27l6.18 3.73-1.64-7.03L766 9.24l-7.19-.62L756 2l-2.81 6.62-7.19.62 5.45 4.73-1.63 7.03 6.18-3.73z" strokeWidth="2" strokeDasharray="63.43870861567312,8.690316890742066" strokeDashoffset="5.460604"/>
<path d="M780 17.27l6.18 3.73-1.64-7.03L790 9.24l-7.19-.62L780 2l-2.81 6.62-7.19.62 5.45 4.73-1.63 7.03 6.18-3.73z" strokeWidth="2" strokeDasharray="64.21014758905402,7.918877917361179" strokeDashoffset="4.633246"/>
<path d="M804 17.27l6.18 3.73-1.64-7.03L814 9.24l-7.19-.62L804 2l-2.81 6.62-7.19.62 5.45 4.73-1.63 7.03 6.18-3.73z" strokeWidth="2" strokeDasharray="64.92081294120929,7.208212565205893" strokeDashoffset="3.893981"/>
<path d="M828 17.27l6.18 3.73-1.64-7.03L838 9.24l-7.19-.62L828 2l-2.81 6.62-7.19.62 5.45 4.73-1.63 7.03 6.18-3.73z" strokeWidth="2" strokeDasharray="65.57800983314226,6.551015673272929" strokeDashoffset="3.236022"/>
<path d="M852 17.27l6.18 3.73-1.64-7.03L862 9.24l-7.19-.62L852 2l-2.81 6.62-7.19.62 5.45 4.73-1.63 7.03 6.18-3.73z" strokeWidth="2" strokeDasharray="66.18806729385521,5.940958212559975" strokeDashoffset="2.653342"/>
<path d="M876 17.27l6.18 3.73-1.64-7.03L886 9.24l-7.19-.62L876 2l-2.81 6.62-7.19.62 5.45 4.73-1.63 7.03 6.18-3.73z" strokeWidth="2" strokeDasharray="66.75645085779651,5.3725746486186745" strokeDashoffset="2.140569"/>
<path d="M900 17.27l6.18 3.73-1.64-7.03L910 9.24l-7.19-.62L900 2l-2.81 6.62-7.19.62 5.45 4.73-1.63 7.03 6.18-3.73z" strokeWidth="2" strokeDasharray="67.28787729757944,4.841148208835741" strokeDashoffset="1.692895"/>
<path d="M924 17.27l6.18 3.73-1.64-7.03L934 9.24l-7.19-.62L924 2l-2.81 6.62-7.19.62 5.45 4.73-1.63 7.03 6.18-3.73z" strokeWidth="2" strokeDasharray="67.78642115179053,4.34260435462466" strokeDashoffset="1.306004"/>
<path d="M948 17.27l6.18 3.73-1.64-7.03L958 9.24l-7.19-.62L948 2l-2.81 6.62-7.19.62 5.45 4.73-1.63 7.03 6.18-3.73z" strokeWidth="2" strokeDasharray="68.25560916910027,3.8734163373149157" strokeDashoffset=".976005"/>
<path d="M972 17.27l6.18 3.73-1.64-7.03L982 9.24l-7.19-.62L972 2l-2.81 6.62-7.19.62 5.45 4.73-1.63 7.03 6.18-3.73z" strokeWidth="2" strokeDasharray="68.69850194961086,3.4305235568043355" strokeDashoffset=".699381"/>
<path d="M996 17.27l6.18 3.73-1.64-7.03 5.46-4.73-7.19-.62L996 2l-2.81 6.62-7.19.62 5.45 4.73-1.63 7.03 6.18-3.73z" strokeWidth="2" strokeDasharray="69.11776351977846,3.01126198663672" strokeDashoffset=".472941"/>
<path d="M1020 17.27l6.18 3.73-1.64-7.03 5.46-4.73-7.19-.62L1020 2l-2.81 6.62-7.19.62 5.45 4.73-1.63 7.03 6.18-3.73z" strokeWidth="2" strokeDasharray="69.51572015805456,2.6133053483606226" strokeDashoffset=".293782"/>
<path d="M1044 17.27l6.18 3.73-1.64-7.03 5.46-4.73-7.19-.62L1044 2l-2.81 6.62-7.19.62 5.45 4.73-1.63 7.03 6.18-3.73z" strokeWidth="2" strokeDasharray="69.89440993393652,2.2346155724786776" strokeDashoffset=".159255"/>
<path d="M1068 17.27l6.18 3.73-1.64-7.03 5.46-4.73-7.19-.62L1068 2l-2.81 6.62-7.19.62 5.45 4.73-1.63 7.03 6.18-3.73z" strokeWidth="2" strokeDasharray="70.25562436401144,1.8734011424037533" strokeDashoffset=".066937"/>
<path d="M1092 17.27l6.18 3.73-1.64-7.03 5.46-4.73-7.19-.62L1092 2l-2.81 6.62-7.19.62 5.45 4.73-1.63 7.03 6.18-3.73z" strokeWidth="2" strokeDasharray="70.60094344406993,1.5280820623452656" strokeDashoffset=".014605"/>
<path d="M1116 17.27l6.18 3.73-1.64-7.03 5.46-4.73-7.19-.62L1116 2l-2.81 6.62-7.19.62 5.45 4.73-1.63 7.03 6.18-3.73z" strokeWidth="2" strokeDasharray="70.93155019435322,1.1974753120619723" strokeDashoffset="72.129026"/>
<path d="M1140 17.27l6.18 3.73-1.64-7.03 5.46-4.73-7.19-.62L1140 2l-2.81 6.62-7.19.62 5.45 4.73-1.63 7.03 6.18-3.73z" strokeWidth="2" strokeDasharray="71.2274479746965,0.9015775317186875" strokeDashoffset="72.129026"/>
<path d="M1164 17.27l6.18 3.73-1.64-7.03 5.46-4.73-7.19-.62L1164 2l-2.81 6.62-7.19.62 5.45 4.73-1.63 7.03 6.18-3.73z" strokeWidth="2" strokeDasharray="71.47687688712722,0.6521486192879689" strokeDashoffset="72.129026"/>
<path d="M1188 17.27l6.18 3.73-1.64-7.03 5.46-4.73-7.19-.62L1188 2l-2.81 6.62-7.19.62 5.45 4.73-1.63 7.03 6.18-3.73z" strokeWidth="2" strokeDasharray="71.68243475241496,0.4465907540002311" strokeDashoffset="72.129026"/>
<path d="M1212 17.27l6.18 3.73-1.64-7.03 5.46-4.73-7.19-.62L1212 2l-2.81 6.62-7.19.62 5.45 4.73-1.63 7.03 6.18-3.73z" strokeWidth="2" strokeDasharray="71.8464997131785,0.2825257932366929" strokeDashoffset="72.129026"/>
<path d="M1236 17.27l6.18 3.73-1.64-7.03 5.46-4.73-7.19-.62L1236 2l-2.81 6.62-7.19.62 5.45 4.73-1.63 7.03 6.18-3.73z" strokeWidth="2" strokeDasharray="71.97125430164321,0.1577712047719777" strokeDashoffset="72.129026"/>
<path d="M1260 17.27l6.18 3.73-1.64-7.03 5.46-4.73-7.19-.62L1260 2l-2.81 6.62-7.19.62 5.45 4.73-1.63 7.03 6.18-3.73z" strokeWidth="2" strokeDasharray="72.05870634619993,0.07031916021526141" strokeDashoffset="72.129026"/>
<path d="M1284 17.27l6.18 3.73-1.64-7.03 5.46-4.73-7.19-.62L1284 2l-2.81 6.62-7.19.62 5.45 4.73-1.63 7.03 6.18-3.73z" strokeWidth="2" strokeDasharray="72.11070719086939,0.018318315545791827" strokeDashoffset="72.129026"/>
<path d="M1308 17.27l6.18 3.73-1.64-7.03 5.46-4.73-7.19-.62L1308 2l-2.81 6.62-7.19.62 5.45 4.73-1.63 7.03 6.18-3.73z" strokeWidth="2" strokeDasharray="72.12896762346965,0.000057882945537807663" strokeDashoffset="72.129026"/>
</svg>